<svg xmlns="http://www.w3.org/2000/svg" viewBox="0 0 1600 1000" role="img" aria-labelledby="title desc">
  <title id="title">Schematic city parking map</title>
  <desc id="desc">A clean city map with roads, blocks, green areas and parking zones.</desc>
  <defs>
    <linearGradient id="bg" x1="0" x2="1" y1="0" y2="1">
      <stop offset="0" stop-color="#f8fbf6"/>
      <stop offset="0.52" stop-color="#f7f3fa"/>
      <stop offset="1" stop-color="#edf7f5"/>
    </linearGradient>
    <filter id="softShadow" x="-20%" y="-20%" width="140%" height="140%">
      <feDropShadow dx="0" dy="18" stdDeviation="22" flood-color="#1c1330" flood-opacity="0.12"/>
    </filter>
  </defs>
  <rect width="1600" height="1000" fill="url(#bg)"/>
  <path d="M0 214C233 173 393 213 568 169c208-53 386-150 599-93 160 43 232 147 433 122v154c-246 35-366-103-557-113-212-11-395 116-603 132-167 14-283-24-440 6V214Z" fill="#dff4ef"/>
  <path d="M0 752c197-78 391-25 548 51 178 86 346 132 534 68 141-48 292-138 518-112v241H0V752Z" fill="#e6f7ee"/>
  <g stroke="#ffffff" stroke-width="42" stroke-linecap="round" opacity="0.96">
    <path d="M-80 458c254-53 389-49 546 37 203 112 357 109 552 8 168-87 336-101 662-44"/>
    <path d="M-60 781c232-60 409-53 558 32 178 101 344 115 534 31 162-72 315-85 639-34"/>
    <path d="M205-40c43 181 89 302 159 435 98 185 92 345-8 623"/>
    <path d="M748-50c-58 228-61 388-7 520 69 169 60 319-35 572"/>
    <path d="M1188-35c-45 171-47 299-7 452 48 184 32 361-60 624"/>
  </g>
  <g stroke="#d9d3e3" stroke-width="16" stroke-linecap="round" opacity="0.9">
    <path d="M-80 458c254-53 389-49 546 37 203 112 357 109 552 8 168-87 336-101 662-44"/>
    <path d="M-60 781c232-60 409-53 558 32 178 101 344 115 534 31 162-72 315-85 639-34"/>
    <path d="M205-40c43 181 89 302 159 435 98 185 92 345-8 623"/>
    <path d="M748-50c-58 228-61 388-7 520 69 169 60 319-35 572"/>
    <path d="M1188-35c-45 171-47 299-7 452 48 184 32 361-60 624"/>
  </g>
  <g fill="#ffffff" stroke="#e1dae8" stroke-width="3" filter="url(#softShadow)">
    <rect x="434" y="126" width="174" height="120" rx="16"/>
    <rect x="640" y="118" width="220" height="136" rx="16"/>
    <rect x="955" y="146" width="180" height="122" rx="16"/>
    <rect x="1236" y="240" width="188" height="132" rx="16"/>
    <rect x="92" y="532" width="202" height="136" rx="16"/>
    <rect x="490" y="554" width="220" height="150" rx="16"/>
    <rect x="812" y="610" width="210" height="142" rx="16"/>
    <rect x="1280" y="570" width="190" height="148" rx="16"/>
  </g>
  <g fill="#f4ecff" stroke="#d9c9f3" stroke-width="3">
    <rect x="538" y="332" width="104" height="72" rx="14"/>
    <rect x="906" y="372" width="118" height="76" rx="14"/>
    <rect x="1038" y="738" width="125" height="82" rx="14"/>
  </g>
  <g fill="#d7f5e8">
    <circle cx="286" cy="249" r="72"/>
    <circle cx="1345" cy="165" r="84"/>
    <circle cx="1378" cy="878" r="90"/>
    <circle cx="520" cy="884" r="76"/>
  </g>
  <g fill="none" stroke="#9fd8bf" stroke-width="8" opacity="0.8">
    <path d="M1228 160c63-28 140-14 189 35"/>
    <path d="M1290 872c57-39 143-38 201 4"/>
    <path d="M215 248c56-36 131-34 188 7"/>
  </g>
  <g fill="#0a0a0a" opacity="0.12">
    <circle cx="1090" cy="514" r="9"/>
    <circle cx="586" cy="415" r="9"/>
    <circle cx="870" cy="756" r="9"/>
    <circle cx="1210" cy="650" r="9"/>
    <circle cx="392" cy="560" r="9"/>
  </g>
</svg>
